<svg xmlns="http://www.w3.org/2000/svg" xmlns:xlink="http://www.w3.org/1999/xlink" width="73" height="83" viewBox="0 0 73 83">
    <defs>
        <filter id="cu4u89z61d" width="115%" height="112%" x="-7.5%" y="-6%" filterUnits="objectBoundingBox">
            <feGaussianBlur in="SourceGraphic" stdDeviation=".69"/>
        </filter>
        <filter id="tiiam2f9de" width="118.1%" height="120.7%" x="-9.1%" y="-15.5%" filterUnits="objectBoundingBox">
            <feOffset dy="-3" in="SourceAlpha" result="shadowOffsetOuter1"/>
            <feGaussianBlur in="shadowOffsetOuter1" result="shadowBlurOuter1" stdDeviation=".5"/>
            <feColorMatrix in="shadowBlurOuter1" values="0 0 0 0 0 0 0 0 0 0 0 0 0 0 0 0 0 0 0.1 0"/>
        </filter>
        <path id="rrfprm5ltf" d="M15.18 0H48.3l-1.206 25.344c-.112 2.337-1.132 4.538-2.843 6.134l-5.296 4.938c-1.533 1.43-3.55 2.224-5.646 2.224h-3.137c-2.096 0-4.114-.795-5.647-2.224l-5.296-4.94c-1.711-1.595-2.731-3.796-2.843-6.133L15.18 0z"/>
        <path id="jomnciuucg" d="M1.004 0h11.793c.381 0 .69.309.69.69 0 .09-.017.178-.051.26-1.62 3.967-3.797 5.95-6.533 5.95S1.988 4.917.365.951C.221.6.39.196.742.051.825.017.914 0 1.004 0z"/>
        <linearGradient id="taazqnzgrb" x1="50%" x2="50%" y1="100%" y2="0%">
            <stop offset="0%" stop-color="#9CE3F7"/>
            <stop offset="48.669%" stop-color="#66B8D8"/>
            <stop offset="100%" stop-color="#2D8AB6"/>
        </linearGradient>
        <circle id="tttd2968qa" cx="36.5" cy="46.5" r="36.5"/>
    </defs>
    <g fill="none" fill-rule="evenodd">
        <mask id="3dla5lf0nc" fill="#fff">
            <use xlink:href="#tttd2968qa"/>
        </mask>
        <use fill="url(#taazqnzgrb)" xlink:href="#tttd2968qa"/>
        <g mask="url(#3dla5lf0nc)">
            <g transform="translate(5 16)">
                <path fill="#E8CAAC" d="M7.842 45.291l14.124-2.609c2.836-1.773 4.254-3.58 4.254-5.422 0-1.841 1.84-4.732 5.52-8.673 3.68 3.94 5.52 6.83 5.52 8.673s1.42 3.65 4.258 5.422l14.12 2.61c2.945.543 5.082 3.111 5.082 6.106v9.322c0 3.43-2.78 6.21-6.21 6.21H8.97c-3.43 0-6.21-2.78-6.21-6.21v-9.322c0-2.995 2.137-5.563 5.082-6.107z"/>
                <path fill="#006FA2" d="M41.516 42.682l14.923 2.757c2.57.475 4.567 2.508 4.997 5.086l1.529 9.174c.564 3.383-1.722 6.583-5.105 7.147-.337.056-.679.084-1.02.084H6.64c-3.429 0-6.21-2.78-6.21-6.21 0-.342.029-.684.085-1.02l1.53-9.175c.429-2.578 2.426-4.611 4.996-5.086l14.923-2.757c2.102 2.139 5.696 3.548 9.776 3.548s7.674-1.41 9.776-3.548z"/>
                <path fill="#000" d="M17.94 5.52h27.6l-1.943 24.292c-.082 1.033-.495 2.012-1.177 2.793l-4.003 4.582c-1.572 1.8-3.846 2.833-6.236 2.833H31.3c-2.39 0-4.664-1.033-6.236-2.833l-4.003-4.583c-.682-.78-1.095-1.76-1.177-2.792L17.94 5.52z" filter="url(#cu4u89z61d)" opacity=".1"/>
                <path fill="#F1D2B4" d="M46.399 14.49c.64-1.429 3.446.58 3.091 3.45 0 1.38-1.03 3.254-1.03 4.83 0 1.05-.456 1.747-1.367 2.088-1.067-5.565-1.298-9.02-.694-10.368zM17.081 14.49c-.64-1.429-3.446.58-3.091 3.45 0 1.38 1.03 3.254 1.03 4.83 0 1.05.456 1.747 1.367 2.088 1.067-5.565 1.298-9.02.694-10.368z"/>
                <g>
                    <use fill="#000" filter="url(#tiiam2f9de)" xlink:href="#rrfprm5ltf"/>
                    <use fill="#F1D2B4" xlink:href="#rrfprm5ltf"/>
                </g>
                <path fill="#6B4426" d="M30.172 38.64c-2.096 0-4.114-.795-5.647-2.224l-5.296-4.94c-1.711-1.595-2.731-3.796-2.842-6.133L15.87 14.49c.672 3.606 1.184 7.062 1.539 10.368.115 1.078 1.11 3.383 2.65 3.73 1.54.346 1.966-1.132 3.401-2.368 2.214-1.906 4.887-2.387 8.02-1.444l.26.082.262-.082c3.046-.917 5.657-.488 7.834 1.288l.186.156c1.435 1.236 1.86 2.714 3.4 2.367 1.54-.346 2.535-2.651 2.65-3.729.323-3.005.776-6.135 1.36-9.388l.18-.98-.517 10.853c-.107 2.254-1.06 4.38-2.661 5.96l-.181.174-5.296 4.939c-1.472 1.372-3.39 2.16-5.396 2.22l-.251.004h-3.138zM24.84 26.91c-1.043.722-2.214 2.285-1.58 4.354l.204.695c.179.606.375 1.138.89 1.7.701.765 2.94 2.575 4.56 2.575 1.446 0 1.242-1.358 2.826-1.287 1.523-.068 1.395 1.18 2.662 1.28l.165.007c1.62 0 3.86-1.81 4.56-2.576.702-.766.812-1.475 1.094-2.394.634-2.069-.537-3.632-1.58-4.354-1.328-.92-3.525-1.165-6.59-.735l-.31.045c-3.228-.49-5.528-.26-6.901.69z"/>
                <path fill="#C7A585" d="M31.675 22.08h.13c.615 0 1.197.273 1.59.745l.242.29c.224.268.187.666-.08.889-.114.094-.257.146-.404.146h-2.826c-.348 0-.63-.283-.63-.631 0-.148.051-.29.145-.404l.242-.29c.394-.472.976-.745 1.59-.745z"/>
                <g transform="translate(24.84 26.91)">
                    <mask id="s14we24vxh" fill="#fff">
                        <use xlink:href="#jomnciuucg"/>
                    </mask>
                    <use fill="#3B3B3B" xlink:href="#jomnciuucg"/>
                    <path fill="#FFF" d="M2.337-.69h9.126c.38 0 .69.309.69.69 0 .074-.012.148-.036.218l-.23.69c-.094.282-.357.472-.654.472H2.567c-.297 0-.56-.19-.654-.472l-.23-.69c-.12-.361.075-.752.436-.873.07-.023.144-.035.218-.035z" mask="url(#s14we24vxh)"/>
                    <g fill="#DD9F9F" mask="url(#s14we24vxh)">
                        <g transform="translate(2.07 3.45)">
                            <circle cx="6.555" cy="3.105" r="3.105"/>
                            <circle cx="3.105" cy="3.105" r="3.105"/>
                        </g>
                    </g>
                </g>
                <circle cx="24.84" cy="17.25" r="2.07" fill="#141414"/>
                <circle cx="38.64" cy="17.25" r="2.07" fill="#141414"/>
                <path stroke="#56341A" stroke-linecap="round" stroke-width="1.38" d="M20.7 13.8c.92-.69 2.07-1.15 3.45-1.38 1.38-.23 2.53-.23 3.45 0M42.78 13.8c-.92-.69-2.07-1.15-3.45-1.38-1.38-.23-2.53-.23-3.45 0"/>
            </g>
        </g>
        <path fill="#56341A" d="M52.132 30.553l-.474-7.146c-.085-1.272-.863-2.393-2.024-2.917-3.643-1.643-7.858-1.285-12.646 1.075-3.923 1.934-7.458 2.524-10.606 1.77-1.853-.444-3.714.699-4.158 2.552-.046.188-.075.38-.088.575l-.263 3.975c-.016.233-.218.41-.45.394-.147-.01-.277-.093-.346-.222C20.572 29.667 19 20.174 19 17.39c0-2.782 3.517-10.854 13.208-10.854 9 0 8.944-6.537 8.944-6.537 14.433 9.313 13.845 13.913 13.845 17.391 0 3.479-1.89 12.325-2.077 13.218-.045.215-.257.353-.472.308-.175-.036-.304-.185-.316-.364z"/>
    </g>
</svg>
