<?xml version="1.0" encoding="UTF-8"?>
<svg width="224px" height="155px" viewBox="0 0 224 155" version="1.1" xmlns="http://www.w3.org/2000/svg" xmlns:xlink="http://www.w3.org/1999/xlink">
    <!-- Generator: Sketch 46.2 (44496) - http://www.bohemiancoding.com/sketch -->
    <title>Illustratie/gegevens/gegevens-klein</title>
    <desc>Created with Sketch.</desc>
    <defs></defs>
    <g id="Page-1" stroke="none" stroke-width="1" fill="none" fill-rule="evenodd">
        <g id="Illustratie/gegevens/gegevens-klein">
            <g id="Group-20" transform="translate(5.000000, 8.000000)">
                <rect id="Rectangle-path" fill="#01A5F0" fill-rule="nonzero" x="139.630092" y="15.7378723" width="13.3406422" height="16.8144681"></rect>
                <rect id="Rectangle-path" fill="#006FA2" fill-rule="nonzero" x="118.681651" y="28.4612766" width="31.4619266" height="2.00638298"></rect>
                <rect id="Rectangle-path" fill="#006FA2" fill-rule="nonzero" x="118.681651" y="35.4787234" width="46.8149541" height="2.00638298"></rect>
                <path d="M213.489541,50.1791489 C213.037996,46.202065 209.650707,43.204813 205.63633,43.2302128 C205.040109,43.2175803 204.444294,43.2700919 203.859541,43.3868085 C202.53155,43.6666299 201.295813,44.2759229 200.266697,45.1582979 C200.109633,45.3148936 199.903486,45.4519149 199.756239,45.6182979 L199.66789,45.7259574 C198.423815,47.4141285 197.672919,49.4128037 197.49844,51.5004255 L197.49844,51.5004255 L213.518991,51.5004255 L213.518991,51.2165957" id="Shape" fill="#006FA2" fill-rule="nonzero"></path>
                <path d="M205.547982,43.2302128 L139.777339,43.2302128 C139.777339,43.2302128 133.111927,42.9855319 133.062844,49.9246809 L133.062844,51.5395745 L179.740367,51.5395745 L179.740367,84.5910638 L181.02633,85.8634043 L180.221376,90.4340426 L181.311009,92.2740426 L183.824037,94.2804255 L187.613211,95.1417021 C198.853119,95.846383 197.49844,85.6676596 197.49844,85.6676596 L197.665321,51.2068085 C197.665321,51.2068085 197.743853,43.6608511 205.547982,43.2302128 Z M197.468991,51.2165957 L197.468991,51.2165957 L197.557339,50.7565957 L197.468991,51.2165957 Z" id="Shape" fill="#CCCCCC" fill-rule="nonzero"></path>
                <polygon id="Shape" fill="#006FA2" fill-rule="nonzero" points="21.8613761 119.717447 0 130.444255 199.952569 130.444255 176.736514 120.157872"></polygon>
                <path d="M181.350275,7.35021277 C180.814395,3.3220479 177.346632,0.326737919 173.271284,0.371914894 C169.037819,0.33792986 165.551236,3.67941179 165.418073,7.89829787 C165.025413,10.1102128 163.543119,18.4685106 163.317339,19.9953191 C163.06211,21.7668085 161.030092,33.6974468 161.030092,33.6974468 L163.611835,54.3974468 L158.703578,85.5306383 L116.904862,85.5306383 C116.904862,85.5306383 116.777248,95.1123404 124.080734,95.1123404 L158.242202,95.1123404 L158.242202,95.1123404 L181.409174,95.1123404 L181.409174,95.1123404 L188.221835,95.1123404 C185.797156,94.8970213 181.801835,93.6442553 181.409174,87.86 L181.409174,85.9025532 C181.409174,85.7948936 181.409174,85.6970213 181.409174,85.5893617 L181.409174,85.5893617 L181.409174,8.38765957 C181.418991,8.15276596 181.350275,7.35021277 181.350275,7.35021277 Z" id="Shape" fill="#006FA2" fill-rule="nonzero"></path>
                <path d="M172.957156,0.322978723 L107.628257,0.322978723 C107.628257,0.322978723 100.962844,0.0782978723 100.913761,7.01744681 L100.913761,89.993617 L157.29,89.993617 C157.29,89.993617 164.632752,90.5417021 165.388624,80.206383 L165.388624,8.6812766 C165.388624,8.6812766 165.064679,1.18425532 172.957156,0.322978723 Z" id="Shape" fill="#CCCCCC" fill-rule="nonzero"></path>
                <rect id="Rectangle-path" fill="#FFFFFF" fill-rule="nonzero" x="23.3338532" y="31.113617" width="150.536239" height="87.0476596"></rect>
                <path d="M5.5659633,137.236596 L194.396422,137.236596 C197.145046,137.236596 199.422477,134.300426 199.89367,130.454043 L0.0490825688,130.454043 C0.520275229,134.310213 2.79770642,137.236596 5.5659633,137.236596 Z" id="Shape" fill="#01A5F0" fill-rule="nonzero"></path>
                <path d="M172.966972,35.2829787 C172.988801,33.292136 171.390498,31.6591993 169.393761,31.6323404 L28.4875229,31.6323404 C26.4907868,31.6591993 24.8924834,33.292136 24.9143119,35.2829787 L24.9143119,115.225106 L172.966972,115.225106 L172.966972,35.2829787 Z" id="Shape"></path>
                <path d="M169.393761,27.7761702 L28.4875229,27.7761702 C24.3817467,27.8298864 21.0956636,31.1893891 21.1447706,35.2829787 L21.1447706,115.704681 L21.1447706,115.704681 L21.1447706,120.148085 L176.736514,120.148085 L176.736514,115.714468 L176.736514,115.714468 L176.736514,35.2829787 C176.785621,31.1893891 173.499538,27.8298864 169.393761,27.7761702 L169.393761,27.7761702 Z M172.966972,115.225106 L24.9143119,115.225106 L24.9143119,35.2829787 C24.8979262,33.2959395 26.494654,31.6689861 28.4875229,31.6421277 L169.393761,31.6421277 C171.390498,31.6689865 172.988801,33.3019233 172.966972,35.292766 L172.966972,115.225106 Z" id="Shape" fill="#000050" fill-rule="nonzero"></path>
                <path d="M105.556972,134.349362 C105.556972,134.776384 105.209767,135.122553 104.781468,135.122553 L97.046055,135.122553 C96.8403784,135.122553 96.6431258,135.041092 96.4976905,134.896091 C96.3522552,134.751089 96.2705505,134.554425 96.2705505,134.349362 L96.2705505,134.349362 C96.2705505,133.92234 96.6177557,133.57617 97.046055,133.57617 L104.781468,133.57617 C105.209767,133.57617 105.556972,133.92234 105.556972,134.349362 L105.556972,134.349362 Z" id="Shape" fill="#FFFFFF" fill-rule="nonzero"></path>
                <path d="M101.502752,56.707234 C101.53503,55.9361172 101.248762,55.1855328 100.710747,54.6306261 C100.172733,54.0757195 99.4300367,53.765033 98.6559633,53.7710638 C96.4461003,53.9226871 94.7535704,55.7918975 94.8275229,57.9991489 C94.7545977,58.7805987 95.0274135,59.5548585 95.574516,60.1191385 C96.1216185,60.6834185 96.8885032,60.9815029 97.6743119,60.9353191 C99.8653726,60.7455771 101.536755,58.8997221 101.502752,56.707234 L101.502752,56.707234 Z" id="Shape" fill="#006FA2" fill-rule="nonzero"></path>
                <polygon id="Shape" fill="#000050" fill-rule="nonzero" points="137.755138 62.0902128 137.745321 62.0021277 137.755138 62.0902128"></polygon>
                <polygon id="Shape" fill="#006FA2" fill-rule="nonzero" points="153.275046 115.645957 152.666422 115.645957 152.666422 115.645957"></polygon>
                <path d="M136.626239,20.9642553 C132.664892,20.9294515 129.297773,23.8417151 128.773028,27.7565957 L144.577615,27.7565957 C144.027794,23.8154141 140.61677,20.9015995 136.626239,20.9642553 Z" id="Shape" fill="#006FA2" fill-rule="nonzero"></path>
                <polygon id="Shape" fill="#000050" fill-rule="nonzero" points="52.1355046 52.9 52.5085321 57.4804255 74.5662385 76.8885106 92.5599083 84.7085106 103.662385 85.1587234 145.32367 53.2719149 145.421835 52.9880851"></polygon>
                <polygon id="Shape" fill="#000050" fill-rule="nonzero" points="143.114954 49.6017021 143.105138 49.5038298 143.114954 49.6017021"></polygon>
                <path d="M136.753853,20.9642553 L70.8359633,20.9642553 C70.8359633,20.9642553 64.1705505,20.7195745 64.1214679,27.6587234 L64.1214679,110.634894 L120.497706,110.634894 C120.497706,110.634894 127.840459,111.182979 128.59633,100.84766 L128.59633,29.2540426 C128.59633,29.2540426 128.095688,20.7097872 136.753853,20.9642553 Z" id="Shape" fill="#CCCCCC" fill-rule="nonzero"></path>
                <rect id="Rectangle-path" fill="#006FA2" fill-rule="nonzero" x="72.6618349" y="66.4161702" width="46.8149541" height="2.00638298"></rect>
                <rect id="Rectangle-path" fill="#006FA2" fill-rule="nonzero" x="72.6618349" y="73.4434043" width="46.8149541" height="2.00638298"></rect>
                <path d="M104.369174,59.9761702 C104.369174,60.8031872 103.696739,61.473617 102.867248,61.473617 L74.0459633,61.473617 C73.2164721,61.473617 72.5440367,60.8031872 72.5440367,59.9761702 L72.5440367,30.9765957 C72.5440367,30.1495787 73.2164721,29.4791489 74.0459633,29.4791489 L102.867248,29.4791489 C103.696739,29.4791489 104.369174,30.1495787 104.369174,30.9765957 L104.369174,59.9761702 Z" id="Shape" fill="#01A5F0" fill-rule="nonzero"></path>
                <path d="M97.3798165,40.186383 C97.3798165,40.186383 97.026422,57.3825532 98.6166972,59.8391489 L97.3798165,60.5438298 L94.5624771,60.0740426 C94.5624771,60.0740426 93.2765138,59.4378723 93.09,59.3791489 C92.9034862,59.3204255 92.383211,58.087234 92.383211,58.087234 C92.3646356,57.3602793 92.305646,56.6349107 92.2065138,55.9144681 C92.0887156,55.3859574 92.0298165,52.5182979 92.0298165,52.5182979 C92.3212351,51.8804682 92.5768589,51.2269775 92.7955046,50.5608511 C92.8544037,50.1987234 93.5611927,48.3391489 93.6200917,47.9182979 C93.6789908,47.4974468 95.8778899,41.6251064 95.8778899,41.6251064 L97.3798165,40.186383 Z" id="Shape" fill="#000050" fill-rule="nonzero"></path>
                <path d="M95.976055,40.0689362 C95.8386239,39.9417021 95.3576147,39.4131915 95.3576147,39.4131915 L94.2090826,38.8455319 L92.7562385,37.2110638 L88.2700917,39.4034043 L88.2700917,55.4446809 C94.4446789,55.3565957 95.6717431,47.6638298 95.6717431,47.6638298 C97.3405505,48.006383 97.8313761,44.0131915 97.5663303,43.3965957 C97.4387756,42.9827137 97.0017504,42.747424 96.5846789,42.8680851 L95.976055,40.0689362 Z" id="Shape" fill="#E5F6FD" fill-rule="nonzero"></path>
                <path d="M92.1770642,53.9178723 C92.1770642,53.9178723 92.0690826,57.5293617 92.9722018,59.1246809 L88.3289908,61.1408511 L88.3289908,55.2685106 L92.1770642,53.9178723 Z" id="Shape" fill="#E5F6FD" fill-rule="nonzero"></path>
                <path d="M84.510367,53.9178723 C84.510367,53.9178723 84.5692661,57.6370213 83.6268807,59.0855319 L88.3584404,61.1408511 L88.3584404,55.2685106 L84.510367,53.9178723 Z" id="Shape" fill="#E5F6FD" fill-rule="nonzero"></path>
                <path d="M80.1714679,46.6753191 C80.1714679,46.6753191 79.4155963,58.0970213 77.0301835,60.2502128 L79.5333945,59.8391489 L82.3212844,59.7804255 L83.7152294,59.6531915 L84.2355046,58.3808511 L85.276055,56.0612766 L85.0404587,54.1038298 L83.7054128,50.9229787 L80.1714679,46.6753191 Z" id="Shape" fill="#000050" fill-rule="nonzero"></path>
                <path d="M84.510367,53.9178723 C84.3478639,55.6404813 83.9617949,57.3347759 83.3618349,58.9582979 L88.3584404,61.1310638 L88.3584404,55.2587234 L84.510367,53.9178723 Z" id="Shape" fill="#E5F6FD" fill-rule="nonzero"></path>
                <path d="M80.5444954,40.0689362 C80.6721101,39.9417021 81.1629358,39.4131915 81.1629358,39.4131915 L82.3016514,38.8455319 L83.5385321,37.2110638 L88.2504587,39.4034043 L88.2504587,55.4446809 C82.0758716,55.3565957 80.8488073,47.6638298 80.8488073,47.6638298 C79.1701835,48.006383 79.0818349,43.9251064 79.0818349,43.2693617 C79.0818349,42.613617 79.926055,42.8778723 79.926055,42.8778723 L80.5444954,40.0689362 Z" id="Shape" fill="#E5F6FD" fill-rule="nonzero"></path>
                <path d="M95.976055,40.0689362 C95.8386239,39.9417021 95.3576147,39.4131915 95.3576147,39.4131915 L94.2090826,38.8455319 L92.7562385,37.2110638 L88.2700917,39.4034043 L88.2700917,55.4446809 C94.4446789,55.3565957 95.6717431,47.6638298 95.6717431,47.6638298 C97.3405505,48.006383 97.9786239,43.6608511 97.4779817,43.1812766 C97.2670307,42.918429 96.9230526,42.800301 96.5944954,42.8778723 L95.976055,40.0689362 Z" id="Shape" fill="#E5F6FD" fill-rule="nonzero"></path>
                <path d="M83.46,36.9957447 C82.7041284,37.9744681 89.2222936,39.9906383 89.6640367,40.1765957 C90.9140076,40.7259212 92.0120097,41.5687939 92.8642202,42.6331915 C93.8949541,44.0034043 93.5219266,45.2757447 93.2470642,46.7829787 C94.2777982,46.626383 95.6422936,44.7178723 96.1920183,43.9348936 C97.1434875,42.5820761 97.5595609,40.9262323 97.3601835,39.2859574 C97.0673775,35.7596709 94.4110588,32.8815057 90.9107339,32.2978723 C89.0656508,31.8259689 87.1309547,31.8259689 85.2858716,32.2978723 C84.5937545,32.4868583 84.017455,32.9650806 83.7054128,33.6093617 C83.5385321,34.0204255 82.6059633,34.1868085 82.2329358,34.4804255 C80.8536615,35.5566522 79.9744235,37.1472851 79.7984404,38.8846809 C79.7297248,39.6578723 79.3566972,42.3004255 80.0634862,42.8778723 C80.5641284,41.5565957 80.7604587,40.7344681 81.9678899,39.8634043 C82.4265306,39.5272206 82.8419446,39.1360554 83.2047706,38.6987234 C83.3422018,38.5421277 84.0489908,37.4459574 83.8133945,37.5829787" id="Shape" fill="#000050" fill-rule="nonzero"></path>
                <polygon id="Shape" points="88.3289908 55.4446809 88.3289908 55.4446809 88.3289908 60.9059574 88.3289908 60.9059574"></polygon>
                <path d="M83.3716514,58.9680851 C75.4104587,58.9680851 74.5858716,61.473617 74.5858716,61.473617 L88.3289908,61.473617 L88.3289908,60.9157447 L83.3716514,58.9680851 Z" id="Shape" fill="#006FA2" fill-rule="nonzero"></path>
                <path d="M83.3716514,58.9680851 L88.427156,60.9255319 L92.9329358,59.046383 L98.4890826,59.6629787 C98.4890826,59.6629787 101.326055,59.7217021 102.415688,61.4246809 L74.5858716,61.4246809 C74.5858716,61.4246809 75.4104587,58.9680851 83.3716514,58.9680851 Z" id="Shape" fill="#006FA2" fill-rule="nonzero"></path>
                <path d="M102.425505,61.4540426 C101.375138,59.7706383 98.5970642,59.6923404 98.4988991,59.6923404 C97.5859633,57.8914894 97.3601835,50.8838298 97.3209174,45.833617 C97.6546789,44.7080851 97.693945,43.4259574 97.4387156,43.1812766 L97.3209174,43.0834043 C97.3209174,41.3412766 97.3209174,40.147234 97.3209174,40.147234 L97.3209174,40.147234 C97.3397777,39.8441211 97.3397777,39.5401342 97.3209174,39.2370213 C97.0281115,35.7107348 94.3717927,32.8325695 90.8714679,32.2489362 C90.0638488,32.073468 89.2429631,31.9654343 88.4173394,31.9259574 L88.4173394,61.4148936 L102.425505,61.4540426 Z" id="Shape" fill="#FFFFFF" fill-rule="nonzero" opacity="0.3"></path>
                <polygon id="Shape" fill="#006FA2" fill-rule="nonzero" points="93.3059633 82.5651064 52.1355046 52.9 52.1355046 111.505957 85.236789 92.5676596"></polygon>
                <polyline id="Shape" fill="#006FA2" fill-rule="nonzero" points="104.339725 82.3595745 145.421835 111.505957 145.421835 52.9880851"></polyline>
                <polyline id="Shape" fill="#01A5F0" fill-rule="nonzero" points="91.7353211 81.5080851 52.1355046 111.505957 145.382569 111.505957 105.370459 81.6255319"></polyline>
                <polyline id="Shape" fill="#FFFFFF" fill-rule="nonzero" opacity="0.3" points="98.9406422 81.5570213 98.9406422 111.505957 145.71633 111.505957 145.421835 111.280851 145.421835 111.280851 145.421835 111.280851 145.569083 52.9 145.431651 52.9978723 145.431651 52.9880851 105.370459 81.6255319"></polyline>
            </g>
        </g>
    </g>
</svg>